<svg version="1.1" xmlns="http://www.w3.org/2000/svg" xmlns:xlink="http://www.w3.org/1999/xlink" viewBox="0 0 226 226"><g fill="none" fill-rule="nonzero" stroke="none" stroke-width="1" stroke-linecap="butt" stroke-linejoin="miter" stroke-miterlimit="10" stroke-dasharray="" stroke-dashoffset="0" font-family="none" font-weight="none" font-size="none" text-anchor="none" style="mix-blend-mode: normal"><path d="M0,226v-226h226v226z" fill="none"></path><g><path d="M213.33621,226h-200.67241c-6.99431,0 -12.66379,-5.66948 -12.66379,-12.66379v-170.47414h226v170.47414c0,6.99431 -5.66948,12.66379 -12.66379,12.66379z" fill="#e7eced"></path><path d="M226,46.75862h-226v-34.09483c0,-6.99431 5.66948,-12.66379 12.66379,-12.66379h200.67241c6.99431,0 12.66379,5.66948 12.66379,12.66379z" fill="#556080"></path><rect x="4" y="4" transform="scale(3.89655,3.89655)" width="4" height="4" fill="#dd352e"></rect><rect x="12" y="4" transform="scale(3.89655,3.89655)" width="4" height="4" fill="#ebba16"></rect><rect x="20" y="4" transform="scale(3.89655,3.89655)" width="4" height="4" fill="#23a24d"></rect><rect x="5" y="17" transform="scale(3.89655,3.89655)" width="48" height="36" fill="#ffffff"></rect><path d="M148.06897,93.51724h-70.13793c-2.1509,0 -3.89655,-1.74566 -3.89655,-3.89655c0,-2.1509 1.74566,-3.89655 3.89655,-3.89655h70.13793c2.1509,0 3.89655,1.74566 3.89655,3.89655c0,2.1509 -1.74566,3.89655 -3.89655,3.89655z" fill="#ed8a19"></path><path d="M140.27586,109.10345h-54.55172c-2.1509,0 -3.89655,-1.74566 -3.89655,-3.89655c0,-2.1509 1.74566,-3.89655 3.89655,-3.89655h54.55172c2.1509,0 3.89655,1.74566 3.89655,3.89655c0,2.1509 -1.74566,3.89655 -3.89655,3.89655z" fill="#ebba16"></path><path d="M148.06897,187.03448h-70.13793c-2.1509,0 -3.89655,-1.74566 -3.89655,-3.89655c0,-2.1509 1.74566,-3.89655 3.89655,-3.89655h70.13793c2.1509,0 3.89655,1.74566 3.89655,3.89655c0,2.1509 -1.74566,3.89655 -3.89655,3.89655z" fill="#ed8a19"></path><path d="M140.27586,171.44828h-54.55172c-2.1509,0 -3.89655,-1.74566 -3.89655,-3.89655c0,-2.1509 1.74566,-3.89655 3.89655,-3.89655h54.55172c2.1509,0 3.89655,1.74566 3.89655,3.89655c0,2.1509 -1.74566,3.89655 -3.89655,3.89655z" fill="#ebba16"></path><path d="M167.55172,148.06897h-109.10345c-6.45659,0 -11.68966,-5.23307 -11.68966,-11.68966v0c0,-6.45659 5.23307,-11.68966 11.68966,-11.68966h109.10345c6.45659,0 11.68966,5.23307 11.68966,11.68966v0c0,6.45659 -5.23307,11.68966 -11.68966,11.68966z" fill="#afb6bb"></path></g></g></svg>