<?xml version="1.0" encoding="utf-8"?>
<!-- Generator: Adobe Illustrator 22.1.0, SVG Export Plug-In . SVG Version: 6.00 Build 0)  -->
<svg version="1.1" id="Layer_1" xmlns="http://www.w3.org/2000/svg" xmlns:xlink="http://www.w3.org/1999/xlink" x="0px" y="0px"
	 viewBox="0 0 1080 594" style="enable-background:new 0 0 1080 594;" xml:space="preserve">
<style type="text/css">
	.st0{fill:#FFFFFF;}
</style>
<path class="st0" d="M459.1,133.4c-87.9,0-175.8,0-263.7,0c-12.7,0-21.9-8.9-21.7-20.9c0.2-10.6,8.8-19.4,19.4-19.9
	c1.1,0,2.2,0,3.3,0c175.1,0,350.2,0,525.4,0c7.9,0,14.5,2.2,19,8.8c4.4,6.4,5,13.4,1.6,20.5c-3.5,7.2-9.5,10.9-17.5,11.5
	c-1.4,0.1-2.7,0-4.1,0C633.5,133.4,546.3,133.4,459.1,133.4z"/>
<path class="st0" d="M846.4,92.6c13.2,0,26.3,0,39.5,0c12.5,0,21.6,8.8,21.5,20.6c-0.1,11.6-9.2,20.2-21.6,20.2
	c-26.5,0-52.9,0-79.4,0c-12.2,0-21.3-8.8-21.3-20.4s9-20.3,21.3-20.3C819.8,92.6,833.1,92.6,846.4,92.6z"/>
<path class="st0" d="M948.2,439.2c0,33.6-27.5,61.2-61.2,61.1c-33.7,0-61.1-27.5-61.1-61.2s27.4-61.1,61.2-61.1
	C920.8,378,948.2,405.4,948.2,439.2z M887.1,414.6c-13.7,0-24.5,10.8-24.5,24.5s10.9,24.5,24.5,24.5c13.7,0,24.5-10.9,24.5-24.5
	S900.7,414.6,887.1,414.6z"/>
<path class="st0" d="M703.6,459.5c-20,0-39.9,0-59.9,0c-12.6,0-21.7-8.7-21.7-20.5c0-11.6,9.1-20.3,21.4-20.3c40.1,0,80.1,0,120.2,0
	c12.4,0,21.4,8.6,21.5,20.2c0.1,11.8-9.1,20.5-21.6,20.5C743.6,459.6,723.6,459.5,703.6,459.5z"/>
<path class="st0" d="M173.7,439.3c0,6.6,0.1,13.3,0,19.9c-0.1,11.7-8.9,20.6-20.2,20.7C142,480,133.1,471,133,459.1
	c-0.1-13.3-0.1-26.6,0-39.9c0.1-11.9,8.9-20.8,20.4-20.8s20.2,9,20.3,20.9C173.7,426,173.7,432.7,173.7,439.3z"/>
<path class="st0" d="M234.8,439.1c0-6.8-0.1-13.6,0-20.4c0.2-11.6,9.1-20.4,20.5-20.4c11.1,0,20.1,8.8,20.2,20.2
	c0.2,13.7,0.2,27.4,0,41.1c-0.1,11.3-9.1,20.2-20.3,20.2c-11.3,0-20.3-8.9-20.4-20.4C234.7,452.7,234.8,445.9,234.8,439.1z"/>
<path class="st0" d="M336.7,438.7c0-6.6-0.1-13.3,0-19.9c0.2-11.6,9.1-20.4,20.5-20.4c11.1,0,20.1,8.8,20.2,20.2
	c0.2,13.7,0.2,27.4,0,41.1c-0.1,11.3-9.1,20.2-20.2,20.2c-11.3,0-20.3-8.9-20.5-20.4C336.7,452.6,336.7,445.7,336.7,438.7z"/>
<path class="st0" d="M438.7,439.2c0-6.8-0.1-13.6,0-20.4c0.2-11.6,9.1-20.4,20.4-20.4c11.2,0,20.1,8.8,20.3,20.2
	c0.2,13.7,0.2,27.4,0,41.1c-0.1,11.3-9.1,20.2-20.2,20.2c-11.3,0-20.3-8.9-20.5-20.4C438.6,452.7,438.7,445.9,438.7,439.2z"/>
<path class="st0" d="M540.6,439.2c0-6.8-0.1-13.6,0-20.4c0.2-11.6,9.1-20.4,20.4-20.4c11.2,0,20.1,8.8,20.3,20.2
	c0.2,13.7,0.2,27.4,0,41.1c-0.1,11.3-9.1,20.2-20.2,20.2c-11.3,0.1-20.3-8.9-20.5-20.4C540.5,452.7,540.6,445.9,540.6,439.2z"/>
<path class="st0" d="M35.6,561.1c12.2,10.1,25.4,21.1,60.6,20.6c154.1,0.4,308.2,0.2,462.3,0.2c142.7,0,285.3,0,428,0
	c34.3-0.2,46.3-12.7,58.2-22.8c12.4-10.6,25.6-36.4,25.6-60.1c0-67.4,0-134.8,0-202.2c0-16.7-3.6-32.5-11.1-47.5
	C1027.1,185.2,995.1,121,963,57c-12.2-24.4-31.9-39.3-58.8-44.4c-5.3-1-10.8-1.3-16.2-1.3c-231.9-0.1-463.7-0.1-695.5,0
	c-34.4,0-59.8,15.8-75.3,46.5c-31.9,63.4-63.5,126.9-95.3,190.4c-7.8,15.6-11.6,32-11.6,49.5c0.1,66.4,0.2,132.9,0,199.3
	C10.2,521.9,22.5,550.2,35.6,561.1z M58.5,266.7c15.1-30.2,30.2-60.5,45.3-90.7c16.5-33,33.1-65.9,49.5-99
	c8.4-17,21.7-25.2,40.6-25.2c231.1,0.1,462.3,0.1,693.4,0c18.7,0,32,8.1,40.4,24.9c31.5,63.3,63.2,126.5,94.8,189.7
	c4.7,9.4,7.4,19.1,7.2,29.9c-326.2,0-652.1,0-978.2-0.1C51.3,285.6,53.9,275.9,58.5,266.7z M51.4,342.1c0-1.4,0-2.9,0-4.7
	c326.3,0,652.1,0,978.3,0c0,1.6,0,3.1,0,4.5c0,52,0,104.1,0,156.1c0,25.5-17.4,43-42.9,43c-297.4,0-594.9,0-892.3,0
	c-25.8,0-43.1-17.4-43.1-43.2C51.4,445.9,51.4,394,51.4,342.1z"/>
</svg>
